<svg width="24" height="24" viewBox="0 0 24 24" fill="none" xmlns="http://www.w3.org/2000/svg">
<g id="clinical_notes">
<mask id="mask0_1_420" style="mask-type:alpha" maskUnits="userSpaceOnUse" x="0" y="0" width="24" height="24">
<rect id="Bounding box" width="24" height="24" fill="#D9D9D9"/>
</mask>
<g mask="url(#mask0_1_420)">
<path id="clinical_notes_2" d="M17 15.825C16.2667 15.825 15.6417 15.5667 15.125 15.05C14.6083 14.5333 14.35 13.9083 14.35 13.175C14.35 12.425 14.6083 11.7917 15.125 11.275C15.6417 10.7583 16.2667 10.5 17 10.5C17.7333 10.5 18.3583 10.7583 18.875 11.275C19.3917 11.7917 19.65 12.425 19.65 13.175C19.65 13.9083 19.3917 14.5333 18.875 15.05C18.3583 15.5667 17.7333 15.825 17 15.825ZM17 14.325C17.3167 14.325 17.5873 14.2123 17.812 13.987C18.0373 13.7623 18.15 13.4917 18.15 13.175C18.15 12.8417 18.0373 12.5623 17.812 12.337C17.5873 12.1123 17.3167 12 17 12C16.6833 12 16.4127 12.1123 16.188 12.337C15.9627 12.5623 15.85 12.8417 15.85 13.175C15.85 13.4917 15.9627 13.7623 16.188 13.987C16.4127 14.2123 16.6833 14.325 17 14.325ZM11.35 22.275V19.725C11.35 19.425 11.4167 19.15 11.55 18.9C11.6833 18.65 11.875 18.45 12.125 18.3C12.625 18 13.1543 17.75 13.713 17.55C14.271 17.35 14.8333 17.2083 15.4 17.125L17 19.125L18.6 17.125C19.1667 17.2083 19.725 17.35 20.275 17.55C20.825 17.75 21.35 18 21.85 18.3C22.1 18.45 22.296 18.65 22.438 18.9C22.5793 19.15 22.65 19.4167 22.65 19.7V22.275H11.35ZM12.825 20.775H16.375L14.825 18.8C14.475 18.8833 14.1333 18.996 13.8 19.138C13.4667 19.2793 13.1417 19.4417 12.825 19.625V20.775ZM17.625 20.775H21.15V19.625C20.8333 19.4417 20.5083 19.2793 20.175 19.138C19.8417 18.996 19.5 18.8833 19.15 18.8L17.625 20.775ZM5.3 20.5C4.8 20.5 4.375 20.325 4.025 19.975C3.675 19.625 3.5 19.2 3.5 18.7V5.3C3.5 4.8 3.675 4.375 4.025 4.025C4.375 3.675 4.8 3.5 5.3 3.5H18.7C19.2 3.5 19.625 3.675 19.975 4.025C20.325 4.375 20.5 4.8 20.5 5.3V9.65C20.2833 9.41667 20.0583 9.19567 19.825 8.987C19.5917 8.779 19.3167 8.63333 19 8.55V5.3C19 5.21667 18.971 5.146 18.913 5.088C18.8543 5.02933 18.7833 5 18.7 5H5.3C5.21667 5 5.146 5.02933 5.088 5.088C5.02933 5.146 5 5.21667 5 5.3V18.7C5 18.7833 5.02933 18.8543 5.088 18.913C5.146 18.971 5.21667 19 5.3 19H9.05C9.01667 19.1167 8.99167 19.2333 8.975 19.35C8.95833 19.4667 8.95 19.5917 8.95 19.725V20.5H5.3ZM7.25 8.875H14.45C14.8 8.625 15.171 8.44567 15.563 8.337C15.9543 8.229 16.35 8.16667 16.75 8.15V7.375H7.25V8.875ZM7.25 12.75H12C12.0167 12.4833 12.0543 12.225 12.113 11.975C12.171 11.725 12.25 11.4833 12.35 11.25H7.25V12.75ZM7.25 16.625H10.375C10.5583 16.4917 10.746 16.3627 10.938 16.238C11.1293 16.1127 11.325 16.0083 11.525 15.925V15.125H7.25V16.625ZM5 19V5V8.55V8.125V19Z" fill="#747474"/>
</g>
</g>
</svg>
