<svg width="24" height="24" viewBox="0 0 24 24" fill="none" xmlns="http://www.w3.org/2000/svg">
<g id="healthicons:drone-outline">
<g id="Group">
<path id="Vector" fill-rule="evenodd" clip-rule="evenodd" d="M6.5 20C7.16304 20 7.79893 19.7366 8.26777 19.2678C8.73661 18.7989 9 18.163 9 17.5C9 16.837 8.73661 16.2011 8.26777 15.7322C7.79893 15.2634 7.16304 15 6.5 15C5.83696 15 5.20107 15.2634 4.73223 15.7322C4.26339 16.2011 4 16.837 4 17.5C4 18.163 4.26339 18.7989 4.73223 19.2678C5.20107 19.7366 5.83696 20 6.5 20ZM6.5 21C7.42826 21 8.3185 20.6313 8.97487 19.9749C9.63125 19.3185 10 18.4283 10 17.5C10 16.5717 9.63125 15.6815 8.97487 15.0251C8.3185 14.3687 7.42826 14 6.5 14C5.57174 14 4.6815 14.3687 4.02513 15.0251C3.36875 15.6815 3 16.5717 3 17.5C3 18.4283 3.36875 19.3185 4.02513 19.9749C4.6815 20.6313 5.57174 21 6.5 21Z" fill="#747474"/>
<path id="Vector_2" d="M7.375 17.5C7.375 17.7321 7.28281 17.9546 7.11872 18.1187C6.95462 18.2828 6.73206 18.375 6.5 18.375C6.26794 18.375 6.04538 18.2828 5.88128 18.1187C5.71719 17.9546 5.625 17.7321 5.625 17.5C5.625 17.2679 5.71719 17.0454 5.88128 16.8813C6.04538 16.7172 6.26794 16.625 6.5 16.625C6.73206 16.625 6.95462 16.7172 7.11872 16.8813C7.28281 17.0454 7.375 17.2679 7.375 17.5Z" fill="#747474"/>
<path id="Vector_3" fill-rule="evenodd" clip-rule="evenodd" d="M17.5 20C18.163 20 18.7989 19.7366 19.2678 19.2678C19.7366 18.7989 20 18.163 20 17.5C20 16.837 19.7366 16.2011 19.2678 15.7322C18.7989 15.2634 18.163 15 17.5 15C16.837 15 16.2011 15.2634 15.7322 15.7322C15.2634 16.2011 15 16.837 15 17.5C15 18.163 15.2634 18.7989 15.7322 19.2678C16.2011 19.7366 16.837 20 17.5 20ZM17.5 21C18.4283 21 19.3185 20.6313 19.9749 19.9749C20.6313 19.3185 21 18.4283 21 17.5C21 16.5717 20.6313 15.6815 19.9749 15.0251C19.3185 14.3687 18.4283 14 17.5 14C16.5717 14 15.6815 14.3687 15.0251 15.0251C14.3687 15.6815 14 16.5717 14 17.5C14 18.4283 14.3687 19.3185 15.0251 19.9749C15.6815 20.6313 16.5717 21 17.5 21Z" fill="#747474"/>
<path id="Vector_4" d="M18.375 17.5C18.375 17.7321 18.2828 17.9546 18.1187 18.1187C17.9546 18.2828 17.7321 18.375 17.5 18.375C17.2679 18.375 17.0454 18.2828 16.8813 18.1187C16.7172 17.9546 16.625 17.7321 16.625 17.5C16.625 17.2679 16.7172 17.0454 16.8813 16.8813C17.0454 16.7172 17.2679 16.625 17.5 16.625C17.7321 16.625 17.9546 16.7172 18.1187 16.8813C18.2828 17.0454 18.375 17.2679 18.375 17.5Z" fill="#747474"/>
<path id="Vector_5" fill-rule="evenodd" clip-rule="evenodd" d="M17.5 9C18.163 9 18.7989 8.73661 19.2678 8.26777C19.7366 7.79893 20 7.16304 20 6.5C20 5.83696 19.7366 5.20107 19.2678 4.73223C18.7989 4.26339 18.163 4 17.5 4C16.837 4 16.2011 4.26339 15.7322 4.73223C15.2634 5.20107 15 5.83696 15 6.5C15 7.16304 15.2634 7.79893 15.7322 8.26777C16.2011 8.73661 16.837 9 17.5 9ZM17.5 10C17.9596 10 18.4148 9.90947 18.8394 9.73358C19.264 9.55769 19.6499 9.29988 19.9749 8.97487C20.2999 8.64987 20.5577 8.26403 20.7336 7.83939C20.9095 7.41475 21 6.95963 21 6.5C21 6.04037 20.9095 5.58525 20.7336 5.16061C20.5577 4.73597 20.2999 4.35013 19.9749 4.02513C19.6499 3.70012 19.264 3.44231 18.8394 3.26642C18.4148 3.09053 17.9596 3 17.5 3C16.5717 3 15.6815 3.36875 15.0251 4.02513C14.3687 4.6815 14 5.57174 14 6.5C14 7.42826 14.3687 8.3185 15.0251 8.97487C15.6815 9.63125 16.5717 10 17.5 10Z" fill="#747474"/>
<path id="Vector_6" d="M18.375 6.5C18.375 6.73206 18.2828 6.95462 18.1187 7.11872C17.9546 7.28281 17.7321 7.375 17.5 7.375C17.2679 7.375 17.0454 7.28281 16.8813 7.11872C16.7172 6.95462 16.625 6.73206 16.625 6.5C16.625 6.26794 16.7172 6.04538 16.8813 5.88128C17.0454 5.71719 17.2679 5.625 17.5 5.625C17.7321 5.625 17.9546 5.71719 18.1187 5.88128C18.2828 6.04538 18.375 6.26794 18.375 6.5Z" fill="#747474"/>
<path id="Vector_7" fill-rule="evenodd" clip-rule="evenodd" d="M6.5 9C7.16304 9 7.79893 8.73661 8.26777 8.26777C8.73661 7.79893 9 7.16304 9 6.5C9 5.83696 8.73661 5.20107 8.26777 4.73223C7.79893 4.26339 7.16304 4 6.5 4C5.83696 4 5.20107 4.26339 4.73223 4.73223C4.26339 5.20107 4 5.83696 4 6.5C4 7.16304 4.26339 7.79893 4.73223 8.26777C5.20107 8.73661 5.83696 9 6.5 9ZM6.5 10C6.95963 10 7.41475 9.90947 7.83939 9.73358C8.26403 9.55769 8.64987 9.29988 8.97487 8.97487C9.29988 8.64987 9.55769 8.26403 9.73358 7.83939C9.90947 7.41475 10 6.95963 10 6.5C10 6.04037 9.90947 5.58525 9.73358 5.16061C9.55769 4.73597 9.29988 4.35013 8.97487 4.02513C8.64987 3.70012 8.26403 3.44231 7.83939 3.26642C7.41475 3.09053 6.95963 3 6.5 3C5.57174 3 4.6815 3.36875 4.02513 4.02513C3.36875 4.6815 3 5.57174 3 6.5C3 7.42826 3.36875 8.3185 4.02513 8.97487C4.6815 9.63125 5.57174 10 6.5 10Z" fill="#747474"/>
<path id="Vector_8" d="M7.375 6.5C7.375 6.73206 7.28281 6.95462 7.11872 7.11872C6.95462 7.28281 6.73206 7.375 6.5 7.375C6.26794 7.375 6.04538 7.28281 5.88128 7.11872C5.71719 6.95462 5.625 6.73206 5.625 6.5C5.625 6.26794 5.71719 6.04538 5.88128 5.88128C6.04538 5.71719 6.26794 5.625 6.5 5.625C6.73206 5.625 6.95462 5.71719 7.11872 5.88128C7.28281 6.04538 7.375 6.26794 7.375 6.5Z" fill="#747474"/>
<path id="Vector_9" fill-rule="evenodd" clip-rule="evenodd" d="M9.36 11.888L6.5 17.5L12 14.5815L17.5 17.5L14.64 11.888L17.28 6.5L12 9.194L6.72 6.5L9.36 11.888ZM8.9385 8.7545L10.258 11.4475C10.3264 11.5869 10.3613 11.7403 10.3601 11.8956C10.3589 12.0508 10.3215 12.2037 10.251 12.342L8.829 15.132L11.5315 13.6985C11.6758 13.622 11.8367 13.582 12 13.582C12.1633 13.582 12.3242 13.622 12.4685 13.6985L15.171 15.132L13.749 12.342C13.6785 12.2037 13.6411 12.0508 13.6399 11.8956C13.6387 11.7403 13.6736 11.5869 13.742 11.4475L15.062 8.7545L12.4545 10.0845C12.3138 10.1563 12.158 10.1938 12 10.1938C11.842 10.1938 11.6862 10.1563 11.5455 10.0845L8.938 8.7545H8.9385Z" fill="#747474"/>
</g>
</g>
</svg>
