<svg width="30" height="30" viewBox="0 0 30 30" fill="none" xmlns="http://www.w3.org/2000/svg">
<g id="list_alt">
<mask id="mask0_0_874" style="mask-type:alpha" maskUnits="userSpaceOnUse" x="0" y="0" width="30" height="30">
<rect id="Bounding box" width="30" height="30" fill="#D9D9D9"/>
</mask>
<g mask="url(#mask0_0_874)">
<path id="list_alt_2" d="M10.0625 20.9688C10.375 20.9688 10.6408 20.8592 10.86 20.64C11.0783 20.4217 11.1875 20.1562 11.1875 19.8438C11.1875 19.5312 11.0783 19.2708 10.86 19.0625C10.6408 18.8542 10.375 18.75 10.0625 18.75C9.75 18.75 9.48958 18.8542 9.28125 19.0625C9.07292 19.2708 8.96875 19.5312 8.96875 19.8438C8.96875 20.1562 9.07292 20.4217 9.28125 20.64C9.48958 20.8592 9.75 20.9688 10.0625 20.9688ZM10.0625 16.0938C10.375 16.0938 10.6408 15.9896 10.86 15.7812C11.0783 15.5729 11.1875 15.3125 11.1875 15C11.1875 14.6875 11.0783 14.4271 10.86 14.2188C10.6408 14.0104 10.375 13.9062 10.0625 13.9062C9.75 13.9062 9.48958 14.0104 9.28125 14.2188C9.07292 14.4271 8.96875 14.6875 8.96875 15C8.96875 15.3125 9.07292 15.5729 9.28125 15.7812C9.48958 15.9896 9.75 16.0938 10.0625 16.0938ZM10.0625 11.25C10.375 11.25 10.6408 11.1458 10.86 10.9375C11.0783 10.7292 11.1875 10.4688 11.1875 10.1562C11.1875 9.84375 11.0783 9.57792 10.86 9.35875C10.6408 9.14042 10.375 9.03125 10.0625 9.03125C9.75 9.03125 9.48958 9.14042 9.28125 9.35875C9.07292 9.57792 8.96875 9.84375 8.96875 10.1562C8.96875 10.4688 9.07292 10.7292 9.28125 10.9375C9.48958 11.1458 9.75 11.25 10.0625 11.25ZM13.875 20.7812H21V18.9062H13.875V20.7812ZM13.875 15.9375H21V14.0625H13.875V15.9375ZM13.875 11.0938H21V9.21875H13.875V11.0938ZM6.625 25.625C6 25.625 5.46875 25.4062 5.03125 24.9688C4.59375 24.5312 4.375 24 4.375 23.375V6.625C4.375 6 4.59375 5.46875 5.03125 5.03125C5.46875 4.59375 6 4.375 6.625 4.375H23.375C24 4.375 24.5312 4.59375 24.9688 5.03125C25.4062 5.46875 25.625 6 25.625 6.625V23.375C25.625 24 25.4062 24.5312 24.9688 24.9688C24.5312 25.4062 24 25.625 23.375 25.625H6.625ZM6.625 23.75H23.375C23.4583 23.75 23.5417 23.7083 23.625 23.625C23.7083 23.5417 23.75 23.4583 23.75 23.375V6.625C23.75 6.54167 23.7083 6.45833 23.625 6.375C23.5417 6.29167 23.4583 6.25 23.375 6.25H6.625C6.54167 6.25 6.45833 6.29167 6.375 6.375C6.29167 6.45833 6.25 6.54167 6.25 6.625V23.375C6.25 23.4583 6.29167 23.5417 6.375 23.625C6.45833 23.7083 6.54167 23.75 6.625 23.75Z" fill="#747474"/>
</g>
</g>
</svg>
