<svg width="24" height="24" viewBox="0 0 24 24" fill="none" xmlns="http://www.w3.org/2000/svg">
<g id="add_location_alt">
<mask id="mask0_1_423" style="mask-type:alpha" maskUnits="userSpaceOnUse" x="0" y="0" width="24" height="24">
<rect id="Bounding box" width="24" height="24" fill="#D9D9D9"/>
</mask>
<g mask="url(#mask0_1_423)">
<path id="add_location_alt_2" d="M18 8H19.5V5H22.5V3.5H19.5V0.5H18V3.5H15V5H18V8ZM12 11.75C12.4833 11.75 12.896 11.5793 13.238 11.238C13.5793 10.896 13.75 10.4833 13.75 10C13.75 9.51667 13.5793 9.104 13.238 8.762C12.896 8.42067 12.4833 8.25 12 8.25C11.5167 8.25 11.104 8.42067 10.762 8.762C10.4207 9.104 10.25 9.51667 10.25 10C10.25 10.4833 10.4207 10.896 10.762 11.238C11.104 11.5793 11.5167 11.75 12 11.75ZM12 21.8C9.4 19.5333 7.45833 17.4333 6.175 15.5C4.89167 13.5667 4.25 11.8 4.25 10.2C4.25 7.78333 5.02933 5.854 6.588 4.412C8.146 2.97067 9.95 2.25 12 2.25C12.1667 2.25 12.3333 2.254 12.5 2.262C12.6667 2.27067 12.8333 2.28333 13 2.3V3.825C12.8333 3.79167 12.6707 3.77067 12.512 3.762C12.354 3.754 12.1833 3.75 12 3.75C10.25 3.75 8.77067 4.35 7.562 5.55C6.354 6.75 5.75 8.3 5.75 10.2C5.75 11.4167 6.275 12.8623 7.325 14.537C8.375 16.2123 9.93333 17.9667 12 19.8C14.0667 17.9667 15.625 16.2123 16.675 14.537C17.725 12.8623 18.25 11.4167 18.25 10.2V10H19.75V10.2C19.75 11.8 19.1083 13.5667 17.825 15.5C16.5417 17.4333 14.6 19.5333 12 21.8Z" fill="#747474"/>
</g>
</g>
</svg>
