<svg width="18" height="22" viewBox="0 0 18 22" fill="none" xmlns="http://www.w3.org/2000/svg">
<path id="Vector" d="M9 11.2102C9.61875 11.2102 10.1486 10.9904 10.5896 10.551C11.0299 10.1123 11.25 9.58468 11.25 8.96812C11.25 8.35156 11.0299 7.82356 10.5896 7.38412C10.1486 6.94543 9.61875 6.72608 9 6.72608C8.38125 6.72608 7.85175 6.94543 7.4115 7.38412C6.9705 7.82356 6.75 8.35156 6.75 8.96812C6.75 9.58468 6.9705 10.1123 7.4115 10.551C7.85175 10.9904 8.38125 11.2102 9 11.2102ZM9 19.4497C11.2875 17.3571 12.9844 15.4558 14.0906 13.7459C15.1969 12.0367 15.75 10.5189 15.75 9.19233C15.75 7.15581 15.0982 5.48811 13.7947 4.18922C12.492 2.89108 10.8938 2.24201 9 2.24201C7.10625 2.24201 5.50763 2.89108 4.20412 4.18922C2.90138 5.48811 2.25 7.15581 2.25 9.19233C2.25 10.5189 2.80312 12.0367 3.90937 13.7459C5.01562 15.4558 6.7125 17.3571 9 19.4497ZM9 22C8.85 22 8.7 21.9719 8.55 21.9159C8.4 21.8598 8.26875 21.7851 8.15625 21.6917C5.41875 19.2815 3.375 17.0443 2.025 14.9801C0.675 12.9152 0 10.986 0 9.19233C0 6.38978 0.904875 4.15708 2.71463 2.49424C4.52363 0.831392 6.61875 -3.05176e-05 9 -3.05176e-05C11.3812 -3.05176e-05 13.4764 0.831392 15.2854 2.49424C17.0951 4.15708 18 6.38978 18 9.19233C18 10.986 17.325 12.9152 15.975 14.9801C14.625 17.0443 12.5813 19.2815 9.84375 21.6917C9.73125 21.7851 9.6 21.8598 9.45 21.9159C9.3 21.9719 9.15 22 9 22Z" fill="#9F9C9C"/>
</svg>
