<svg width="31" height="35" viewBox="0 0 31 35" fill="none" xmlns="http://www.w3.org/2000/svg">
<path d="M30.4033 24.6325L27.0667 18.4724V12.0586C27.0667 5.6548 21.8568 0.444946 15.453 0.444946C9.04927 0.444946 3.83942 5.6548 3.83942 12.0586V18.4724L0.502646 24.6324C0.351326 24.9118 0.275167 25.2256 0.28163 25.5432C0.288093 25.8608 0.376956 26.1713 0.539514 26.4442C0.702071 26.7172 0.932745 26.9432 1.20893 27.1002C1.48512 27.2571 1.79735 27.3396 2.11503 27.3396H8.75733C8.7388 27.5429 8.72944 27.7468 8.72929 27.9509C8.72929 29.7341 9.43767 31.4443 10.6986 32.7052C11.9595 33.9662 13.6697 34.6746 15.453 34.6746C17.2362 34.6746 18.9464 33.9662 20.2073 32.7052C21.4682 31.4443 22.1766 29.7341 22.1766 27.9509C22.1766 27.7446 22.1668 27.541 22.1486 27.3396H28.7909C29.1085 27.3396 29.4207 27.257 29.6969 27.1001C29.973 26.9431 30.2037 26.7171 30.3662 26.4442C30.5287 26.1712 30.6176 25.8608 30.624 25.5432C30.6305 25.2256 30.5543 24.9118 30.403 24.6325H30.4033ZM19.7317 27.9509C19.7322 28.5389 19.6115 29.1207 19.3771 29.6599C19.1427 30.1992 18.7997 30.6844 18.3695 31.0851C17.9392 31.4859 17.431 31.7937 16.8765 31.9894C16.322 32.185 15.7331 32.2642 15.1466 32.2221C14.5601 32.18 13.9886 32.0174 13.4677 31.7446C12.9469 31.4718 12.4878 31.0945 12.1192 30.6364C11.7507 30.1782 11.4805 29.649 11.3256 29.0818C11.1706 28.5146 11.1342 27.9215 11.2187 27.3396H19.6873C19.7166 27.5421 19.7315 27.7463 19.7317 27.9509ZM3.14123 24.8947L6.28439 19.0921V12.0586C6.28439 9.62689 7.25037 7.29481 8.96983 5.57535C10.6893 3.8559 13.0214 2.88992 15.453 2.88992C17.8847 2.88992 20.2168 3.8559 21.9362 5.57535C23.6557 7.29481 24.6217 9.62689 24.6217 12.0586V19.0921L27.7647 24.8947H3.14123Z" fill="#515252"/>
</svg>
