<svg width="24" height="24" viewBox="0 0 24 24" fill="none" xmlns="http://www.w3.org/2000/svg">
<g id="group_add">
<mask id="mask0_1_426" style="mask-type:alpha" maskUnits="userSpaceOnUse" x="0" y="0" width="24" height="24">
<rect id="Bounding box" width="24" height="24" fill="#D9D9D9"/>
</mask>
<g mask="url(#mask0_1_426)">
<path id="group_add_2" d="M12.5996 11.65C13.0163 11.1833 13.3289 10.65 13.5376 10.05C13.7456 9.44995 13.8496 8.83328 13.8496 8.19995C13.8496 7.54995 13.7456 6.92495 13.5376 6.32495C13.3289 5.72495 13.0163 5.19995 12.5996 4.74995C13.4829 4.84995 14.2123 5.22895 14.7876 5.88695C15.3623 6.54562 15.6496 7.31662 15.6496 8.19995C15.6496 9.08328 15.3623 9.85395 14.7876 10.512C14.2123 11.1706 13.4829 11.55 12.5996 11.65ZM17.8496 19.3V16.95C17.8496 16.4166 17.7373 15.904 17.5126 15.412C17.2873 14.9206 16.9746 14.5 16.5746 14.15C17.3413 14.4 18.0456 14.7416 18.6876 15.175C19.3289 15.6083 19.6496 16.2 19.6496 16.95V19.3H17.8496ZM19.6496 12.75V10.75H17.6496V9.24995H19.6496V7.24995H21.1496V9.24995H23.1496V10.75H21.1496V12.75H19.6496ZM8.34961 11.7C7.38294 11.7 6.55794 11.354 5.87461 10.662C5.19128 9.97062 4.84961 9.14995 4.84961 8.19995C4.84961 7.23328 5.19128 6.40828 5.87461 5.72495C6.55794 5.04162 7.38294 4.69995 8.34961 4.69995C9.31628 4.69995 10.1413 5.04162 10.8246 5.72495C11.5079 6.40828 11.8496 7.23328 11.8496 8.19995C11.8496 9.14995 11.5079 9.97062 10.8246 10.662C10.1413 11.354 9.31628 11.7 8.34961 11.7ZM0.849609 19.3V17.075C0.849609 16.5916 0.982943 16.1416 1.24961 15.725C1.51628 15.3083 1.86628 14.9833 2.29961 14.75C3.29961 14.2666 4.29961 13.904 5.29961 13.662C6.29961 13.4206 7.31628 13.3 8.34961 13.3C9.36628 13.3 10.3786 13.4206 11.3866 13.662C12.3953 13.904 13.3913 14.2666 14.3746 14.75C14.8246 14.9833 15.1829 15.3083 15.4496 15.725C15.7163 16.1416 15.8496 16.5916 15.8496 17.075V19.3H0.849609Z" fill="#2BD3C6"/>
</g>
</g>
</svg>
