<svg width="24" height="24" viewBox="0 0 24 24" fill="none" xmlns="http://www.w3.org/2000/svg">
<g id="control_point_duplicate">
<mask id="mask0_1_405" style="mask-type:alpha" maskUnits="userSpaceOnUse" x="0" y="0" width="24" height="24">
<rect id="Bounding box" width="24" height="24" fill="#D9D9D9"/>
</mask>
<g mask="url(#mask0_1_405)">
<path id="control_point_duplicate_2" d="M14.25 15.65H15.75V12.75H18.65V11.25H15.75V8.35H14.25V11.25H11.35V12.75H14.25V15.65ZM6 19.95C4.33333 19.3167 3 18.279 2 16.837C1 15.3957 0.5 13.7833 0.5 12C0.5 10.2167 1 8.604 2 7.162C3 5.72067 4.33333 4.68333 6 4.05V5.7C4.76667 6.28333 3.79167 7.14167 3.075 8.275C2.35833 9.40833 2 10.65 2 12C2 13.35 2.35833 14.5917 3.075 15.725C3.79167 16.8583 4.76667 17.7167 6 18.3V19.95ZM15 20.5C13.8167 20.5 12.7127 20.275 11.688 19.825C10.6627 19.375 9.76667 18.7667 9 18C8.23333 17.2333 7.625 16.3373 7.175 15.312C6.725 14.2873 6.5 13.1833 6.5 12C6.5 10.8167 6.725 9.71267 7.175 8.688C7.625 7.66267 8.23333 6.76667 9 6C9.76667 5.23333 10.6627 4.625 11.688 4.175C12.7127 3.725 13.8167 3.5 15 3.5C16.1833 3.5 17.2873 3.725 18.312 4.175C19.3373 4.625 20.2333 5.23333 21 6C21.7667 6.76667 22.375 7.66267 22.825 8.688C23.275 9.71267 23.5 10.8167 23.5 12C23.5 13.1833 23.275 14.2873 22.825 15.312C22.375 16.3373 21.7667 17.2333 21 18C20.2333 18.7667 19.3373 19.375 18.312 19.825C17.2873 20.275 16.1833 20.5 15 20.5ZM15 19C16.95 19 18.604 18.3207 19.962 16.962C21.3207 15.604 22 13.95 22 12C22 10.05 21.3207 8.39567 19.962 7.037C18.604 5.679 16.95 5 15 5C13.05 5 11.396 5.679 10.038 7.037C8.67933 8.39567 8 10.05 8 12C8 13.95 8.67933 15.604 10.038 16.962C11.396 18.3207 13.05 19 15 19Z" fill="#747474"/>
</g>
</g>
</svg>
